# xmcd
#
# Track frame offsets:
#	150
#	16891
#	38398
#	60522
#	78481
#	95750
#	115033
#	134176
#	165372
#
# Disc length: 2460
#
# Revision: 3
# Processed by: cddbd v1.5.1PL0 Copyright (c) Steve Scherf et al.
# Submitted via: AltoMP3_Maker 3.0
# Normalized: r2:TDELIM( - )
#
DISCID=68099a09
DTITLE=Various Artist - West Side Chicago Blues
DYEAR=1900
DGENRE=
TTITLE0=Otis Rush - Cut You A Loose
TTITLE1=Willie Kent - Do You Love Me?
TTITLE2=Magic Sam - I Need You So Bad
TTITLE3=Syl Johnson - Driving Wheel
TTITLE4=Jimmy Dawkins - Chittlins Con Carne
TTITLE5=Tail Dragger - You Gotta Go
TTITLE6=Luther Allison - You Done Lost Your Good Thing
TTITLE7=Little Arthur Duncan - Singin' With The Sun
TTITLE8=Johnny B. Moore - Sittin' Here Thinkin'
EXTD=
EXTT0=
EXTT1=
EXTT2=
EXTT3=
EXTT4=
EXTT5=
EXTT6=
EXTT7=
EXTT8=
PLAYORDER=
